<?xml version="1.0" encoding="utf-8"?>
<!-- Generator: Adobe Illustrator 21.0.2, SVG Export Plug-In . SVG Version: 6.00 Build 0)  -->
<svg version="1.1" id="Layer_1" xmlns="http://www.w3.org/2000/svg" xmlns:xlink="http://www.w3.org/1999/xlink" x="0px" y="0px"
	 viewBox="0 0 307 286" style="enable-background:new 0 0 307 286;" xml:space="preserve">
<style type="text/css">
	.st0{fill:#D19FBC;}
	.st1{fill:#EFC1B2;}
	.st2{fill:#965D80;}
	.st3{fill:#C3897E;}
</style>
<g id="XMLID_12_">
	<path id="XMLID_66_" class="st0" d="M303,253.4c-30.8-60.9-27.4-113.2-37.5-156c-6.4-27-20.4-48.3-48.2-55
		c-23.2-5.6-45.1,10.6-47.5,33c-0.9,8.2-7.6,14.6-15.9,14.6l0,0c-8.3,0-15-6.3-15.9-14.6c-2.3-22.3-24.3-38.6-47.5-33
		c-27.8,6.7-41.8,28-48.2,55c-10.2,42.8-6.7,100.5-37.5,161.4c-14.9,29.4,13.9,27.4,45.5,26.4c40.3-1.3,83.5-11,93.1-52.8
		c5.6-24.4-5.3-64.8-5.3-89.8l0,0c0-8.7,7.1-15.8,15.8-15.8h0.1c8.7,0,15.8,7.1,15.8,15.8l0,0c0,24.9-10.9,65.4-5.3,89.8
		c9.6,41.8,52.8,51.4,93.1,52.6C289.1,286.1,317.8,282.8,303,253.4z"/>
	<path id="XMLID_65_" class="st1" d="M154,89.9h-0.2c-8.7,0-15.7-7-15.7-15.7V5.8h31.7v68.3C169.7,82.8,162.7,89.9,154,89.9z"/>
	<g id="XMLID_41_">
		<path id="XMLID_63_" class="st2" d="M184.6,107.1c22.6-6.8,37.9-21,37.9-37.9c0-2.9-2.4-5.3-5.3-5.3c-2.9,0-5.3,2.4-5.3,5.3
			c0,17.2-26.6,31.7-58.1,31.7S95.8,86.4,95.8,69.2c0-2.9-2.4-5.3-5.3-5.3s-5.3,2.4-5.3,5.3c0,16.8,15.3,31,37.9,37.9
			c-34.4,14.1-59,50.9-59,94.1c0,2.9,2.4,5.3,5.3,5.3s5.3-2.4,5.3-5.3c0-49.5,35.5-89.8,79.2-89.8s79.2,40.3,79.2,89.8
			c0,2.9,2.4,5.3,5.3,5.3c2.9,0,5.3-2.4,5.3-5.3C243.6,158,219,121.1,184.6,107.1z"/>
		<path id="XMLID_61_" class="st2" d="M248.9,111.4c-2.9,0-5.3,2.4-5.3,5.3c0,2.9-2.4,5.3-5.3,5.3c-2.9,0-5.3,2.4-5.3,5.3
			s2.4,5.3,5.3,5.3c8.7,0,15.8-7.1,15.8-15.8C254.2,113.8,251.8,111.4,248.9,111.4z"/>
		<path id="XMLID_59_" class="st2" d="M217.2,227.6c-2.9,0-5.3,2.4-5.3,5.3c0,2.9-2.4,5.3-5.3,5.3c-2.9,0-5.3,2.4-5.3,5.3
			s2.4,5.3,5.3,5.3c8.7,0,15.8-7.1,15.8-15.8C222.5,229.9,220.2,227.6,217.2,227.6z"/>
		<path id="XMLID_57_" class="st2" d="M206.7,174.8c0-2.9-2.4-5.3-5.3-5.3c-2.9,0-5.3-2.4-5.3-5.3c0-2.9-2.4-5.3-5.3-5.3
			c-2.9,0-5.3,2.4-5.3,5.3c0,8.7,7.1,15.8,15.8,15.8C204.3,180.1,206.7,177.7,206.7,174.8z"/>
		<path id="XMLID_55_" class="st2" d="M275.3,254c-2.9,0-5.3-2.4-5.3-5.3c0-2.9-2.4-5.3-5.3-5.3s-5.3,2.4-5.3,5.3
			c0,8.7,7.1,15.8,15.8,15.8c2.9,0,5.3-2.4,5.3-5.3S278.2,254,275.3,254z"/>
		<path id="XMLID_53_" class="st2" d="M74.7,127.3c0-2.9-2.4-5.3-5.3-5.3c-2.9,0-5.3-2.4-5.3-5.3c0-2.9-2.4-5.3-5.3-5.3
			s-5.3,2.4-5.3,5.3c0,8.7,7.1,15.8,15.8,15.8C72.3,132.6,74.7,130.2,74.7,127.3z"/>
		<path id="XMLID_51_" class="st2" d="M101.1,238.1c-2.9,0-5.3-2.4-5.3-5.3c0-2.9-2.4-5.3-5.3-5.3s-5.3,2.4-5.3,5.3
			c0,8.7,7.1,15.8,15.8,15.8c2.9,0,5.3-2.4,5.3-5.3S104,238.1,101.1,238.1z"/>
		<path id="XMLID_49_" class="st2" d="M116.9,159c-2.9,0-5.3,2.4-5.3,5.3c0,2.9-2.4,5.3-5.3,5.3c-2.9,0-5.3,2.4-5.3,5.3
			s2.4,5.3,5.3,5.3c8.7,0,15.8-7.1,15.8-15.8C122.2,161.3,119.8,159,116.9,159z"/>
		<path id="XMLID_47_" class="st2" d="M43,243.4c-2.9,0-5.3,2.4-5.3,5.3c0,2.9-2.4,5.3-5.3,5.3c-2.9,0-5.3,2.4-5.3,5.3
			s2.4,5.3,5.3,5.3c8.7,0,15.8-7.1,15.8-15.8C48.3,245.8,45.9,243.4,43,243.4z"/>
	</g>
	<path id="XMLID_13_" class="st3" d="M132.8,0.6v21.1v10.6v10.6v10.6v10.6V74v0.1v0.3h0c0.2,11.4,9.5,20.7,21,20.7h0.2
		c11.5,0,20.8-9.2,21-20.7h0v-0.3V74V63.9V53.4V42.8V32.2V21.7V0.6H132.8z M154,84.6h-0.2c-5.6,0-10.2-4.5-10.4-10.1h21
		C164.2,80.1,159.6,84.6,154,84.6z M164.5,63.9h-21.1V53.4h21.1V63.9z M164.5,42.8h-21.1V32.2h21.1V42.8z M143.3,21.7V11.1h21.1
		v10.6H143.3z"/>
</g>
</svg>
